<mxfile host="app.diagrams.net" modified="2020-10-26T03:55:48.380Z" agent="5.0 (Macintosh; Intel Mac OS X 10_15_7) AppleWebKit/537.36 (KHTML, like Gecko) Chrome/86.0.4240.80 Safari/537.36" etag="Yhy1KI9RMjCoo1_Y6E9o" version="13.8.2" type="github">
  <diagram id="XKlgS1cITI2GCYDD4Vai" name="Page-1">
    <mxGraphModel dx="1261" dy="674" grid="1" gridSize="10" guides="1" tooltips="1" connect="1" arrows="1" fold="1" page="1" pageScale="1" pageWidth="827" pageHeight="1169" math="0" shadow="0">
      <root>
        <mxCell id="0" />
        <mxCell id="1" parent="0" />
        <mxCell id="k5cldJpxPiUkm249pKG1-15" value="" style="shape=partialRectangle;whiteSpace=wrap;html=1;bottom=1;right=1;left=1;top=0;fillColor=none;routingCenterX=-0.5;rotation=-90;" vertex="1" parent="1">
          <mxGeometry x="410" y="345" width="255" height="60" as="geometry" />
        </mxCell>
        <mxCell id="k5cldJpxPiUkm249pKG1-14" value="" style="shape=partialRectangle;whiteSpace=wrap;html=1;bottom=1;right=1;left=1;top=0;fillColor=none;routingCenterX=-0.5;rotation=90;" vertex="1" parent="1">
          <mxGeometry x="252.5" y="342.5" width="255" height="60" as="geometry" />
        </mxCell>
        <mxCell id="k5cldJpxPiUkm249pKG1-13" value="" style="line;strokeWidth=1;fillColor=none;align=left;verticalAlign=middle;spacingTop=-1;spacingLeft=3;spacingRight=3;rotatable=0;labelPosition=right;points=[];portConstraint=eastwest;" vertex="1" parent="1">
          <mxGeometry x="320" y="371" width="270" height="8" as="geometry" />
        </mxCell>
        <mxCell id="k5cldJpxPiUkm249pKG1-9" value="" style="shape=partialRectangle;whiteSpace=wrap;html=1;bottom=1;right=1;left=1;top=0;fillColor=none;routingCenterX=-0.5;rotation=90;" vertex="1" parent="1">
          <mxGeometry x="30" y="220" width="255" height="60" as="geometry" />
        </mxCell>
        <mxCell id="k5cldJpxPiUkm249pKG1-1" value="用户" style="shape=umlActor;verticalLabelPosition=bottom;verticalAlign=top;html=1;" vertex="1" parent="1">
          <mxGeometry x="50" y="170" width="30" height="60" as="geometry" />
        </mxCell>
        <mxCell id="k5cldJpxPiUkm249pKG1-2" value="文件上传" style="ellipse;whiteSpace=wrap;html=1;" vertex="1" parent="1">
          <mxGeometry x="180" y="90" width="140" height="70" as="geometry" />
        </mxCell>
        <mxCell id="k5cldJpxPiUkm249pKG1-3" value="文件管理" style="ellipse;whiteSpace=wrap;html=1;" vertex="1" parent="1">
          <mxGeometry x="180" y="210" width="140" height="70" as="geometry" />
        </mxCell>
        <mxCell id="k5cldJpxPiUkm249pKG1-4" value="文件选择" style="ellipse;whiteSpace=wrap;html=1;" vertex="1" parent="1">
          <mxGeometry x="180" y="340" width="140" height="70" as="geometry" />
        </mxCell>
        <mxCell id="k5cldJpxPiUkm249pKG1-5" value="地震震例对比" style="ellipse;whiteSpace=wrap;html=1;" vertex="1" parent="1">
          <mxGeometry x="390" y="210" width="140" height="70" as="geometry" />
        </mxCell>
        <mxCell id="k5cldJpxPiUkm249pKG1-6" value="地震频度对比" style="ellipse;whiteSpace=wrap;html=1;" vertex="1" parent="1">
          <mxGeometry x="390" y="340" width="140" height="70" as="geometry" />
        </mxCell>
        <mxCell id="k5cldJpxPiUkm249pKG1-7" value="地震平静对比" style="ellipse;whiteSpace=wrap;html=1;" vertex="1" parent="1">
          <mxGeometry x="390" y="460" width="140" height="70" as="geometry" />
        </mxCell>
        <mxCell id="k5cldJpxPiUkm249pKG1-8" value="对比结果导出" style="ellipse;whiteSpace=wrap;html=1;" vertex="1" parent="1">
          <mxGeometry x="590" y="340" width="140" height="70" as="geometry" />
        </mxCell>
        <mxCell id="k5cldJpxPiUkm249pKG1-12" value="" style="line;strokeWidth=1;fillColor=none;align=left;verticalAlign=middle;spacingTop=-1;spacingLeft=3;spacingRight=3;rotatable=0;labelPosition=right;points=[];portConstraint=eastwest;" vertex="1" parent="1">
          <mxGeometry x="130" y="241" width="50" height="8" as="geometry" />
        </mxCell>
        <mxCell id="k5cldJpxPiUkm249pKG1-16" value="管理员" style="shape=umlActor;verticalLabelPosition=bottom;verticalAlign=top;html=1;" vertex="1" parent="1">
          <mxGeometry x="40" y="1065" width="30" height="60" as="geometry" />
        </mxCell>
        <mxCell id="k5cldJpxPiUkm249pKG1-18" value="暂停与恢复服务" style="ellipse;whiteSpace=wrap;html=1;" vertex="1" parent="1">
          <mxGeometry x="180" y="850" width="140" height="70" as="geometry" />
        </mxCell>
        <mxCell id="k5cldJpxPiUkm249pKG1-19" value="功能管理" style="ellipse;whiteSpace=wrap;html=1;" vertex="1" parent="1">
          <mxGeometry x="180" y="960" width="140" height="70" as="geometry" />
        </mxCell>
        <mxCell id="k5cldJpxPiUkm249pKG1-20" value="功能添加" style="ellipse;whiteSpace=wrap;html=1;" vertex="1" parent="1">
          <mxGeometry x="414" y="960" width="140" height="70" as="geometry" />
        </mxCell>
        <mxCell id="k5cldJpxPiUkm249pKG1-21" value="功能修改" style="ellipse;whiteSpace=wrap;html=1;" vertex="1" parent="1">
          <mxGeometry x="414" y="1060" width="140" height="70" as="geometry" />
        </mxCell>
        <mxCell id="k5cldJpxPiUkm249pKG1-22" value="功能删除" style="ellipse;whiteSpace=wrap;html=1;" vertex="1" parent="1">
          <mxGeometry x="414" y="850" width="140" height="70" as="geometry" />
        </mxCell>
        <mxCell id="k5cldJpxPiUkm249pKG1-23" value="页面UI修改" style="ellipse;whiteSpace=wrap;html=1;" vertex="1" parent="1">
          <mxGeometry x="180" y="1065" width="140" height="70" as="geometry" />
        </mxCell>
        <mxCell id="k5cldJpxPiUkm249pKG1-24" value="示例文件管理" style="ellipse;whiteSpace=wrap;html=1;" vertex="1" parent="1">
          <mxGeometry x="180" y="1166" width="140" height="70" as="geometry" />
        </mxCell>
        <mxCell id="k5cldJpxPiUkm249pKG1-25" value="" style="shape=partialRectangle;whiteSpace=wrap;html=1;bottom=1;right=1;left=1;top=0;fillColor=none;routingCenterX=-0.5;rotation=90;" vertex="1" parent="1">
          <mxGeometry x="40" y="960" width="220" height="60" as="geometry" />
        </mxCell>
        <mxCell id="k5cldJpxPiUkm249pKG1-26" value="" style="shape=partialRectangle;whiteSpace=wrap;html=1;bottom=1;right=1;left=1;top=0;fillColor=none;routingCenterX=-0.5;rotation=90;" vertex="1" parent="1">
          <mxGeometry x="40" y="1070" width="220" height="60" as="geometry" />
        </mxCell>
        <mxCell id="k5cldJpxPiUkm249pKG1-27" value="include" style="endArrow=classic;html=1;dashed=1;" edge="1" parent="1">
          <mxGeometry width="50" height="50" relative="1" as="geometry">
            <mxPoint x="320" y="990" as="sourcePoint" />
            <mxPoint x="410" y="890" as="targetPoint" />
          </mxGeometry>
        </mxCell>
        <mxCell id="k5cldJpxPiUkm249pKG1-28" value="include" style="endArrow=classic;html=1;dashed=1;entryX=0;entryY=0.5;entryDx=0;entryDy=0;" edge="1" parent="1" target="k5cldJpxPiUkm249pKG1-20">
          <mxGeometry width="50" height="50" relative="1" as="geometry">
            <mxPoint x="320" y="990" as="sourcePoint" />
            <mxPoint x="420" y="900" as="targetPoint" />
          </mxGeometry>
        </mxCell>
        <mxCell id="k5cldJpxPiUkm249pKG1-29" value="include" style="endArrow=classic;html=1;dashed=1;entryX=0;entryY=0.5;entryDx=0;entryDy=0;" edge="1" parent="1" target="k5cldJpxPiUkm249pKG1-21">
          <mxGeometry width="50" height="50" relative="1" as="geometry">
            <mxPoint x="320" y="990" as="sourcePoint" />
            <mxPoint x="430" y="910" as="targetPoint" />
          </mxGeometry>
        </mxCell>
        <mxCell id="k5cldJpxPiUkm249pKG1-30" value="" style="ellipse;html=1;shape=startState;fillColor=#000000;strokeColor=#ff0000;" vertex="1" parent="1">
          <mxGeometry x="100" y="1688" width="30" height="30" as="geometry" />
        </mxCell>
        <mxCell id="k5cldJpxPiUkm249pKG1-31" value="" style="edgeStyle=orthogonalEdgeStyle;html=1;verticalAlign=bottom;endArrow=open;endSize=8;strokeColor=#ff0000;entryX=0.5;entryY=1;entryDx=0;entryDy=0;" edge="1" source="k5cldJpxPiUkm249pKG1-30" parent="1" target="k5cldJpxPiUkm249pKG1-33">
          <mxGeometry relative="1" as="geometry">
            <mxPoint x="115" y="1520" as="targetPoint" />
            <Array as="points" />
          </mxGeometry>
        </mxCell>
        <mxCell id="k5cldJpxPiUkm249pKG1-46" value="文件上传" style="edgeStyle=orthogonalEdgeStyle;rounded=0;orthogonalLoop=1;jettySize=auto;html=1;entryX=0.5;entryY=0;entryDx=0;entryDy=0;" edge="1" parent="1" source="k5cldJpxPiUkm249pKG1-32" target="k5cldJpxPiUkm249pKG1-35">
          <mxGeometry relative="1" as="geometry" />
        </mxCell>
        <mxCell id="k5cldJpxPiUkm249pKG1-47" value="文件管理" style="edgeStyle=orthogonalEdgeStyle;rounded=0;orthogonalLoop=1;jettySize=auto;html=1;entryX=1;entryY=0.5;entryDx=0;entryDy=0;" edge="1" parent="1" source="k5cldJpxPiUkm249pKG1-32" target="k5cldJpxPiUkm249pKG1-39">
          <mxGeometry relative="1" as="geometry" />
        </mxCell>
        <mxCell id="k5cldJpxPiUkm249pKG1-32" value="" style="html=1;whiteSpace=wrap;aspect=fixed;shape=isoRectangle;" vertex="1" parent="1">
          <mxGeometry x="443.34000000000003" y="1630" width="33.33" height="20" as="geometry" />
        </mxCell>
        <mxCell id="k5cldJpxPiUkm249pKG1-34" style="edgeStyle=orthogonalEdgeStyle;rounded=0;orthogonalLoop=1;jettySize=auto;html=1;entryX=0.54;entryY=0.1;entryDx=0;entryDy=0;entryPerimeter=0;" edge="1" parent="1" source="k5cldJpxPiUkm249pKG1-33" target="k5cldJpxPiUkm249pKG1-32">
          <mxGeometry relative="1" as="geometry" />
        </mxCell>
        <mxCell id="k5cldJpxPiUkm249pKG1-33" value="获取用户命令" style="ellipse;whiteSpace=wrap;html=1;" vertex="1" parent="1">
          <mxGeometry x="70" y="1550" width="90" height="40" as="geometry" />
        </mxCell>
        <mxCell id="k5cldJpxPiUkm249pKG1-48" value="" style="edgeStyle=orthogonalEdgeStyle;rounded=0;orthogonalLoop=1;jettySize=auto;html=1;" edge="1" parent="1" source="k5cldJpxPiUkm249pKG1-35" target="k5cldJpxPiUkm249pKG1-39">
          <mxGeometry relative="1" as="geometry" />
        </mxCell>
        <mxCell id="k5cldJpxPiUkm249pKG1-35" value="文件上传" style="ellipse;whiteSpace=wrap;html=1;" vertex="1" parent="1">
          <mxGeometry x="180" y="1664" width="90" height="40" as="geometry" />
        </mxCell>
        <mxCell id="k5cldJpxPiUkm249pKG1-71" style="edgeStyle=orthogonalEdgeStyle;rounded=0;orthogonalLoop=1;jettySize=auto;html=1;entryX=0;entryY=0.5;entryDx=0;entryDy=0;" edge="1" parent="1" source="k5cldJpxPiUkm249pKG1-37" target="k5cldJpxPiUkm249pKG1-61">
          <mxGeometry relative="1" as="geometry" />
        </mxCell>
        <mxCell id="k5cldJpxPiUkm249pKG1-72" style="edgeStyle=orthogonalEdgeStyle;rounded=0;orthogonalLoop=1;jettySize=auto;html=1;entryX=0;entryY=0.5;entryDx=0;entryDy=0;" edge="1" parent="1" source="k5cldJpxPiUkm249pKG1-37" target="k5cldJpxPiUkm249pKG1-59">
          <mxGeometry relative="1" as="geometry" />
        </mxCell>
        <mxCell id="k5cldJpxPiUkm249pKG1-73" style="edgeStyle=orthogonalEdgeStyle;rounded=0;orthogonalLoop=1;jettySize=auto;html=1;entryX=0;entryY=0.5;entryDx=0;entryDy=0;" edge="1" parent="1" source="k5cldJpxPiUkm249pKG1-37" target="k5cldJpxPiUkm249pKG1-60">
          <mxGeometry relative="1" as="geometry" />
        </mxCell>
        <mxCell id="k5cldJpxPiUkm249pKG1-37" value="文件选择" style="ellipse;whiteSpace=wrap;html=1;" vertex="1" parent="1">
          <mxGeometry x="464" y="1734" width="90" height="40" as="geometry" />
        </mxCell>
        <mxCell id="k5cldJpxPiUkm249pKG1-50" style="edgeStyle=orthogonalEdgeStyle;rounded=0;orthogonalLoop=1;jettySize=auto;html=1;entryX=0.5;entryY=0;entryDx=0;entryDy=0;" edge="1" parent="1" source="k5cldJpxPiUkm249pKG1-39" target="k5cldJpxPiUkm249pKG1-42">
          <mxGeometry relative="1" as="geometry" />
        </mxCell>
        <mxCell id="k5cldJpxPiUkm249pKG1-96" style="edgeStyle=orthogonalEdgeStyle;rounded=0;orthogonalLoop=1;jettySize=auto;html=1;entryX=1;entryY=0.5;entryDx=0;entryDy=0;" edge="1" parent="1" source="k5cldJpxPiUkm249pKG1-39" target="k5cldJpxPiUkm249pKG1-91">
          <mxGeometry relative="1" as="geometry">
            <Array as="points">
              <mxPoint x="150" y="1754" />
              <mxPoint x="150" y="2000" />
              <mxPoint x="1060" y="2000" />
              <mxPoint x="1060" y="1545" />
            </Array>
          </mxGeometry>
        </mxCell>
        <mxCell id="k5cldJpxPiUkm249pKG1-39" value="文件管理" style="ellipse;whiteSpace=wrap;html=1;" vertex="1" parent="1">
          <mxGeometry x="180" y="1734" width="90" height="40" as="geometry" />
        </mxCell>
        <mxCell id="k5cldJpxPiUkm249pKG1-52" value="平静对比" style="edgeStyle=orthogonalEdgeStyle;rounded=0;orthogonalLoop=1;jettySize=auto;html=1;entryX=0;entryY=0.5;entryDx=0;entryDy=0;" edge="1" parent="1" source="k5cldJpxPiUkm249pKG1-41" target="k5cldJpxPiUkm249pKG1-55">
          <mxGeometry relative="1" as="geometry">
            <mxPoint x="410" y="1830" as="targetPoint" />
          </mxGeometry>
        </mxCell>
        <mxCell id="k5cldJpxPiUkm249pKG1-57" value="震例对比" style="edgeStyle=orthogonalEdgeStyle;rounded=0;orthogonalLoop=1;jettySize=auto;html=1;entryX=0;entryY=0.5;entryDx=0;entryDy=0;" edge="1" parent="1" source="k5cldJpxPiUkm249pKG1-41" target="k5cldJpxPiUkm249pKG1-37">
          <mxGeometry relative="1" as="geometry" />
        </mxCell>
        <mxCell id="k5cldJpxPiUkm249pKG1-58" value="频度对比" style="edgeStyle=orthogonalEdgeStyle;rounded=0;orthogonalLoop=1;jettySize=auto;html=1;entryX=0;entryY=0.5;entryDx=0;entryDy=0;" edge="1" parent="1" source="k5cldJpxPiUkm249pKG1-41" target="k5cldJpxPiUkm249pKG1-56">
          <mxGeometry relative="1" as="geometry" />
        </mxCell>
        <mxCell id="k5cldJpxPiUkm249pKG1-41" value="" style="html=1;whiteSpace=wrap;aspect=fixed;shape=isoRectangle;" vertex="1" parent="1">
          <mxGeometry x="330" y="1820" width="33.33" height="20" as="geometry" />
        </mxCell>
        <mxCell id="k5cldJpxPiUkm249pKG1-51" style="edgeStyle=orthogonalEdgeStyle;rounded=0;orthogonalLoop=1;jettySize=auto;html=1;entryX=-0.12;entryY=0.5;entryDx=0;entryDy=0;entryPerimeter=0;" edge="1" parent="1" source="k5cldJpxPiUkm249pKG1-42" target="k5cldJpxPiUkm249pKG1-41">
          <mxGeometry relative="1" as="geometry" />
        </mxCell>
        <mxCell id="k5cldJpxPiUkm249pKG1-42" value="获取用户命令" style="ellipse;whiteSpace=wrap;html=1;" vertex="1" parent="1">
          <mxGeometry x="180" y="1810" width="90" height="40" as="geometry" />
        </mxCell>
        <mxCell id="k5cldJpxPiUkm249pKG1-74" style="edgeStyle=orthogonalEdgeStyle;rounded=0;orthogonalLoop=1;jettySize=auto;html=1;entryX=0;entryY=0.5;entryDx=0;entryDy=0;" edge="1" parent="1" source="k5cldJpxPiUkm249pKG1-55" target="k5cldJpxPiUkm249pKG1-63">
          <mxGeometry relative="1" as="geometry" />
        </mxCell>
        <mxCell id="k5cldJpxPiUkm249pKG1-75" style="edgeStyle=orthogonalEdgeStyle;rounded=0;orthogonalLoop=1;jettySize=auto;html=1;entryX=0;entryY=0.5;entryDx=0;entryDy=0;" edge="1" parent="1" source="k5cldJpxPiUkm249pKG1-55" target="k5cldJpxPiUkm249pKG1-64">
          <mxGeometry relative="1" as="geometry" />
        </mxCell>
        <mxCell id="k5cldJpxPiUkm249pKG1-55" value="文件选择" style="ellipse;whiteSpace=wrap;html=1;" vertex="1" parent="1">
          <mxGeometry x="464" y="1810" width="90" height="40" as="geometry" />
        </mxCell>
        <mxCell id="k5cldJpxPiUkm249pKG1-76" style="edgeStyle=orthogonalEdgeStyle;rounded=0;orthogonalLoop=1;jettySize=auto;html=1;entryX=0;entryY=0.5;entryDx=0;entryDy=0;" edge="1" parent="1" source="k5cldJpxPiUkm249pKG1-56" target="k5cldJpxPiUkm249pKG1-67">
          <mxGeometry relative="1" as="geometry" />
        </mxCell>
        <mxCell id="k5cldJpxPiUkm249pKG1-77" style="edgeStyle=orthogonalEdgeStyle;rounded=0;orthogonalLoop=1;jettySize=auto;html=1;entryX=0;entryY=0.5;entryDx=0;entryDy=0;" edge="1" parent="1" source="k5cldJpxPiUkm249pKG1-56" target="k5cldJpxPiUkm249pKG1-68">
          <mxGeometry relative="1" as="geometry" />
        </mxCell>
        <mxCell id="k5cldJpxPiUkm249pKG1-56" value="文件选择" style="ellipse;whiteSpace=wrap;html=1;" vertex="1" parent="1">
          <mxGeometry x="464" y="1880" width="90" height="40" as="geometry" />
        </mxCell>
        <mxCell id="k5cldJpxPiUkm249pKG1-85" style="edgeStyle=orthogonalEdgeStyle;rounded=0;orthogonalLoop=1;jettySize=auto;html=1;entryX=0;entryY=0.5;entryDx=0;entryDy=0;" edge="1" parent="1" source="k5cldJpxPiUkm249pKG1-59" target="k5cldJpxPiUkm249pKG1-62">
          <mxGeometry relative="1" as="geometry" />
        </mxCell>
        <mxCell id="k5cldJpxPiUkm249pKG1-59" value="B时间范围选择" style="ellipse;whiteSpace=wrap;html=1;" vertex="1" parent="1">
          <mxGeometry x="621" y="1678" width="90" height="40" as="geometry" />
        </mxCell>
        <mxCell id="k5cldJpxPiUkm249pKG1-87" style="edgeStyle=orthogonalEdgeStyle;rounded=0;orthogonalLoop=1;jettySize=auto;html=1;entryX=0;entryY=0.5;entryDx=0;entryDy=0;" edge="1" parent="1" source="k5cldJpxPiUkm249pKG1-60" target="k5cldJpxPiUkm249pKG1-62">
          <mxGeometry relative="1" as="geometry" />
        </mxCell>
        <mxCell id="k5cldJpxPiUkm249pKG1-60" value="B空间范围选择" style="ellipse;whiteSpace=wrap;html=1;" vertex="1" parent="1">
          <mxGeometry x="620" y="1734" width="90" height="40" as="geometry" />
        </mxCell>
        <mxCell id="k5cldJpxPiUkm249pKG1-84" style="edgeStyle=orthogonalEdgeStyle;rounded=0;orthogonalLoop=1;jettySize=auto;html=1;entryX=0;entryY=0.5;entryDx=0;entryDy=0;" edge="1" parent="1" source="k5cldJpxPiUkm249pKG1-61" target="k5cldJpxPiUkm249pKG1-62">
          <mxGeometry relative="1" as="geometry" />
        </mxCell>
        <mxCell id="k5cldJpxPiUkm249pKG1-90" style="edgeStyle=orthogonalEdgeStyle;rounded=0;orthogonalLoop=1;jettySize=auto;html=1;entryX=0.5;entryY=0;entryDx=0;entryDy=0;" edge="1" parent="1" source="k5cldJpxPiUkm249pKG1-61" target="k5cldJpxPiUkm249pKG1-33">
          <mxGeometry relative="1" as="geometry">
            <mxPoint x="60" y="1530" as="targetPoint" />
            <Array as="points">
              <mxPoint x="830" y="1640" />
              <mxPoint x="830" y="1520" />
              <mxPoint x="115" y="1520" />
            </Array>
          </mxGeometry>
        </mxCell>
        <mxCell id="k5cldJpxPiUkm249pKG1-61" value="A文件地震选择" style="ellipse;whiteSpace=wrap;html=1;" vertex="1" parent="1">
          <mxGeometry x="620" y="1620" width="90" height="40" as="geometry" />
        </mxCell>
        <mxCell id="k5cldJpxPiUkm249pKG1-92" style="edgeStyle=orthogonalEdgeStyle;rounded=0;orthogonalLoop=1;jettySize=auto;html=1;entryX=0.5;entryY=1;entryDx=0;entryDy=0;" edge="1" parent="1" source="k5cldJpxPiUkm249pKG1-62" target="k5cldJpxPiUkm249pKG1-91">
          <mxGeometry relative="1" as="geometry" />
        </mxCell>
        <mxCell id="k5cldJpxPiUkm249pKG1-62" value="导出对比结果" style="ellipse;whiteSpace=wrap;html=1;" vertex="1" parent="1">
          <mxGeometry x="880" y="1620" width="90" height="40" as="geometry" />
        </mxCell>
        <mxCell id="k5cldJpxPiUkm249pKG1-81" style="edgeStyle=orthogonalEdgeStyle;rounded=0;orthogonalLoop=1;jettySize=auto;html=1;" edge="1" parent="1" source="k5cldJpxPiUkm249pKG1-63">
          <mxGeometry relative="1" as="geometry">
            <mxPoint x="750" y="1810" as="targetPoint" />
          </mxGeometry>
        </mxCell>
        <mxCell id="k5cldJpxPiUkm249pKG1-63" value="A文件地震选择" style="ellipse;whiteSpace=wrap;html=1;" vertex="1" parent="1">
          <mxGeometry x="620" y="1790" width="90" height="40" as="geometry" />
        </mxCell>
        <mxCell id="k5cldJpxPiUkm249pKG1-80" style="edgeStyle=orthogonalEdgeStyle;rounded=0;orthogonalLoop=1;jettySize=auto;html=1;entryX=0;entryY=0.5;entryDx=0;entryDy=0;" edge="1" parent="1" source="k5cldJpxPiUkm249pKG1-64" target="k5cldJpxPiUkm249pKG1-65">
          <mxGeometry relative="1" as="geometry" />
        </mxCell>
        <mxCell id="k5cldJpxPiUkm249pKG1-64" value="B时间范围选择" style="ellipse;whiteSpace=wrap;html=1;" vertex="1" parent="1">
          <mxGeometry x="620" y="1840" width="90" height="40" as="geometry" />
        </mxCell>
        <mxCell id="k5cldJpxPiUkm249pKG1-82" style="edgeStyle=orthogonalEdgeStyle;rounded=0;orthogonalLoop=1;jettySize=auto;html=1;entryX=0;entryY=0.5;entryDx=0;entryDy=0;" edge="1" parent="1" source="k5cldJpxPiUkm249pKG1-65" target="k5cldJpxPiUkm249pKG1-66">
          <mxGeometry relative="1" as="geometry" />
        </mxCell>
        <mxCell id="k5cldJpxPiUkm249pKG1-65" value="频度信息提取条件" style="ellipse;whiteSpace=wrap;html=1;" vertex="1" parent="1">
          <mxGeometry x="750" y="1790" width="90" height="40" as="geometry" />
        </mxCell>
        <mxCell id="k5cldJpxPiUkm249pKG1-88" style="edgeStyle=orthogonalEdgeStyle;rounded=0;orthogonalLoop=1;jettySize=auto;html=1;entryX=0;entryY=0.5;entryDx=0;entryDy=0;" edge="1" parent="1" source="k5cldJpxPiUkm249pKG1-66" target="k5cldJpxPiUkm249pKG1-62">
          <mxGeometry relative="1" as="geometry">
            <Array as="points">
              <mxPoint x="935" y="1725" />
              <mxPoint x="830" y="1725" />
              <mxPoint x="830" y="1640" />
            </Array>
          </mxGeometry>
        </mxCell>
        <mxCell id="k5cldJpxPiUkm249pKG1-66" value="B表对比条件" style="ellipse;whiteSpace=wrap;html=1;" vertex="1" parent="1">
          <mxGeometry x="890" y="1790" width="90" height="40" as="geometry" />
        </mxCell>
        <mxCell id="k5cldJpxPiUkm249pKG1-78" style="edgeStyle=orthogonalEdgeStyle;rounded=0;orthogonalLoop=1;jettySize=auto;html=1;entryX=0;entryY=0.5;entryDx=0;entryDy=0;" edge="1" parent="1" source="k5cldJpxPiUkm249pKG1-67" target="k5cldJpxPiUkm249pKG1-69">
          <mxGeometry relative="1" as="geometry" />
        </mxCell>
        <mxCell id="k5cldJpxPiUkm249pKG1-67" value="A文件地震选择" style="ellipse;whiteSpace=wrap;html=1;" vertex="1" parent="1">
          <mxGeometry x="620" y="1890" width="90" height="40" as="geometry" />
        </mxCell>
        <mxCell id="k5cldJpxPiUkm249pKG1-79" style="edgeStyle=orthogonalEdgeStyle;rounded=0;orthogonalLoop=1;jettySize=auto;html=1;entryX=0;entryY=0.5;entryDx=0;entryDy=0;" edge="1" parent="1" source="k5cldJpxPiUkm249pKG1-68" target="k5cldJpxPiUkm249pKG1-69">
          <mxGeometry relative="1" as="geometry" />
        </mxCell>
        <mxCell id="k5cldJpxPiUkm249pKG1-68" value="B时间范围选择" style="ellipse;whiteSpace=wrap;html=1;" vertex="1" parent="1">
          <mxGeometry x="620" y="1940" width="90" height="40" as="geometry" />
        </mxCell>
        <mxCell id="k5cldJpxPiUkm249pKG1-83" style="edgeStyle=orthogonalEdgeStyle;rounded=0;orthogonalLoop=1;jettySize=auto;html=1;entryX=0;entryY=0.5;entryDx=0;entryDy=0;" edge="1" parent="1" source="k5cldJpxPiUkm249pKG1-69" target="k5cldJpxPiUkm249pKG1-70">
          <mxGeometry relative="1" as="geometry" />
        </mxCell>
        <mxCell id="k5cldJpxPiUkm249pKG1-69" value="平静信息提取条件" style="ellipse;whiteSpace=wrap;html=1;" vertex="1" parent="1">
          <mxGeometry x="750" y="1890" width="90" height="40" as="geometry" />
        </mxCell>
        <mxCell id="k5cldJpxPiUkm249pKG1-89" style="edgeStyle=orthogonalEdgeStyle;rounded=0;orthogonalLoop=1;jettySize=auto;html=1;entryX=0;entryY=0.5;entryDx=0;entryDy=0;" edge="1" parent="1" source="k5cldJpxPiUkm249pKG1-70" target="k5cldJpxPiUkm249pKG1-62">
          <mxGeometry relative="1" as="geometry">
            <mxPoint x="860" y="1640" as="targetPoint" />
            <Array as="points">
              <mxPoint x="1020" y="1910" />
              <mxPoint x="1020" y="1690" />
              <mxPoint x="830" y="1690" />
              <mxPoint x="830" y="1640" />
            </Array>
          </mxGeometry>
        </mxCell>
        <mxCell id="k5cldJpxPiUkm249pKG1-70" value="B表对比条件" style="ellipse;whiteSpace=wrap;html=1;" vertex="1" parent="1">
          <mxGeometry x="890" y="1890" width="90" height="40" as="geometry" />
        </mxCell>
        <mxCell id="k5cldJpxPiUkm249pKG1-91" value="" style="ellipse;html=1;shape=endState;fillColor=#000000;strokeColor=#ff0000;" vertex="1" parent="1">
          <mxGeometry x="910" y="1530" width="30" height="30" as="geometry" />
        </mxCell>
        <mxCell id="k5cldJpxPiUkm249pKG1-98" value="" style="line;strokeWidth=1;fillColor=none;align=left;verticalAlign=middle;spacingTop=-1;spacingLeft=3;spacingRight=3;rotatable=0;labelPosition=right;points=[];portConstraint=eastwest;" vertex="1" parent="1">
          <mxGeometry x="150" y="1624" width="30" height="120" as="geometry" />
        </mxCell>
        <mxCell id="k5cldJpxPiUkm249pKG1-101" value="" style="line;strokeWidth=1;html=1;perimeter=backbonePerimeter;points=[];outlineConnect=0;rotation=-90;" vertex="1" parent="1">
          <mxGeometry x="70" y="1754" width="160" height="10" as="geometry" />
        </mxCell>
        <mxCell id="k5cldJpxPiUkm249pKG1-104" value="" style="ellipse;html=1;shape=startState;fillColor=#000000;strokeColor=#ff0000;" vertex="1" parent="1">
          <mxGeometry x="100" y="2130" width="30" height="30" as="geometry" />
        </mxCell>
        <mxCell id="k5cldJpxPiUkm249pKG1-105" value="" style="edgeStyle=orthogonalEdgeStyle;html=1;verticalAlign=bottom;endArrow=open;endSize=8;strokeColor=#ff0000;" edge="1" source="k5cldJpxPiUkm249pKG1-104" parent="1">
          <mxGeometry relative="1" as="geometry">
            <mxPoint x="115" y="2220" as="targetPoint" />
          </mxGeometry>
        </mxCell>
        <mxCell id="k5cldJpxPiUkm249pKG1-112" style="edgeStyle=orthogonalEdgeStyle;rounded=0;orthogonalLoop=1;jettySize=auto;html=1;" edge="1" parent="1" source="k5cldJpxPiUkm249pKG1-106">
          <mxGeometry relative="1" as="geometry">
            <mxPoint x="230" y="2240" as="targetPoint" />
          </mxGeometry>
        </mxCell>
        <mxCell id="k5cldJpxPiUkm249pKG1-106" value="获取用户命令" style="ellipse;whiteSpace=wrap;html=1;" vertex="1" parent="1">
          <mxGeometry x="70" y="2220" width="90" height="40" as="geometry" />
        </mxCell>
        <mxCell id="k5cldJpxPiUkm249pKG1-113" style="edgeStyle=orthogonalEdgeStyle;rounded=0;orthogonalLoop=1;jettySize=auto;html=1;entryX=0;entryY=0.5;entryDx=0;entryDy=0;" edge="1" parent="1" source="k5cldJpxPiUkm249pKG1-107" target="k5cldJpxPiUkm249pKG1-108">
          <mxGeometry relative="1" as="geometry" />
        </mxCell>
        <mxCell id="k5cldJpxPiUkm249pKG1-115" style="edgeStyle=orthogonalEdgeStyle;rounded=0;orthogonalLoop=1;jettySize=auto;html=1;" edge="1" parent="1" source="k5cldJpxPiUkm249pKG1-107">
          <mxGeometry relative="1" as="geometry">
            <mxPoint x="330" y="2240" as="targetPoint" />
          </mxGeometry>
        </mxCell>
        <mxCell id="k5cldJpxPiUkm249pKG1-116" style="edgeStyle=orthogonalEdgeStyle;rounded=0;orthogonalLoop=1;jettySize=auto;html=1;entryX=0;entryY=0.5;entryDx=0;entryDy=0;" edge="1" parent="1" source="k5cldJpxPiUkm249pKG1-107" target="k5cldJpxPiUkm249pKG1-110">
          <mxGeometry relative="1" as="geometry" />
        </mxCell>
        <mxCell id="k5cldJpxPiUkm249pKG1-117" style="edgeStyle=orthogonalEdgeStyle;rounded=0;orthogonalLoop=1;jettySize=auto;html=1;entryX=0;entryY=0.5;entryDx=0;entryDy=0;" edge="1" parent="1" source="k5cldJpxPiUkm249pKG1-107" target="k5cldJpxPiUkm249pKG1-111">
          <mxGeometry relative="1" as="geometry" />
        </mxCell>
        <mxCell id="k5cldJpxPiUkm249pKG1-107" value="" style="html=1;whiteSpace=wrap;aspect=fixed;shape=isoRectangle;" vertex="1" parent="1">
          <mxGeometry x="233.32999999999998" y="2230" width="33.33" height="20" as="geometry" />
        </mxCell>
        <mxCell id="k5cldJpxPiUkm249pKG1-134" style="edgeStyle=orthogonalEdgeStyle;rounded=0;orthogonalLoop=1;jettySize=auto;html=1;entryX=0;entryY=0.5;entryDx=0;entryDy=0;" edge="1" parent="1" source="k5cldJpxPiUkm249pKG1-108" target="k5cldJpxPiUkm249pKG1-133">
          <mxGeometry relative="1" as="geometry">
            <mxPoint x="760" y="2145" as="targetPoint" />
            <Array as="points">
              <mxPoint x="380" y="2080" />
              <mxPoint x="640" y="2080" />
              <mxPoint x="640" y="2200" />
            </Array>
          </mxGeometry>
        </mxCell>
        <mxCell id="k5cldJpxPiUkm249pKG1-108" value="暂停与恢复服务" style="ellipse;whiteSpace=wrap;html=1;" vertex="1" parent="1">
          <mxGeometry x="335" y="2125" width="90" height="40" as="geometry" />
        </mxCell>
        <mxCell id="k5cldJpxPiUkm249pKG1-130" style="edgeStyle=orthogonalEdgeStyle;rounded=0;orthogonalLoop=1;jettySize=auto;html=1;entryX=0;entryY=0.5;entryDx=0;entryDy=0;" edge="1" parent="1" source="k5cldJpxPiUkm249pKG1-109" target="k5cldJpxPiUkm249pKG1-121">
          <mxGeometry relative="1" as="geometry" />
        </mxCell>
        <mxCell id="k5cldJpxPiUkm249pKG1-131" style="edgeStyle=orthogonalEdgeStyle;rounded=0;orthogonalLoop=1;jettySize=auto;html=1;entryX=0;entryY=0.5;entryDx=0;entryDy=0;" edge="1" parent="1" source="k5cldJpxPiUkm249pKG1-109" target="k5cldJpxPiUkm249pKG1-122">
          <mxGeometry relative="1" as="geometry" />
        </mxCell>
        <mxCell id="k5cldJpxPiUkm249pKG1-132" style="edgeStyle=orthogonalEdgeStyle;rounded=0;orthogonalLoop=1;jettySize=auto;html=1;entryX=0;entryY=0.5;entryDx=0;entryDy=0;" edge="1" parent="1" source="k5cldJpxPiUkm249pKG1-109" target="k5cldJpxPiUkm249pKG1-123">
          <mxGeometry relative="1" as="geometry" />
        </mxCell>
        <mxCell id="k5cldJpxPiUkm249pKG1-109" value="功能管理" style="ellipse;whiteSpace=wrap;html=1;" vertex="1" parent="1">
          <mxGeometry x="335" y="2220" width="90" height="40" as="geometry" />
        </mxCell>
        <mxCell id="k5cldJpxPiUkm249pKG1-142" style="edgeStyle=orthogonalEdgeStyle;rounded=0;orthogonalLoop=1;jettySize=auto;html=1;entryX=0;entryY=0.5;entryDx=0;entryDy=0;" edge="1" parent="1" source="k5cldJpxPiUkm249pKG1-110" target="k5cldJpxPiUkm249pKG1-133">
          <mxGeometry relative="1" as="geometry">
            <Array as="points">
              <mxPoint x="640" y="2310" />
              <mxPoint x="640" y="2200" />
            </Array>
          </mxGeometry>
        </mxCell>
        <mxCell id="k5cldJpxPiUkm249pKG1-110" value="页面UI修改&lt;br&gt;" style="ellipse;whiteSpace=wrap;html=1;" vertex="1" parent="1">
          <mxGeometry x="335" y="2290" width="90" height="40" as="geometry" />
        </mxCell>
        <mxCell id="k5cldJpxPiUkm249pKG1-127" style="edgeStyle=orthogonalEdgeStyle;rounded=0;orthogonalLoop=1;jettySize=auto;html=1;entryX=0;entryY=0.5;entryDx=0;entryDy=0;" edge="1" parent="1" source="k5cldJpxPiUkm249pKG1-111" target="k5cldJpxPiUkm249pKG1-124">
          <mxGeometry relative="1" as="geometry" />
        </mxCell>
        <mxCell id="k5cldJpxPiUkm249pKG1-128" style="edgeStyle=orthogonalEdgeStyle;rounded=0;orthogonalLoop=1;jettySize=auto;html=1;entryX=0;entryY=0.5;entryDx=0;entryDy=0;" edge="1" parent="1" source="k5cldJpxPiUkm249pKG1-111" target="k5cldJpxPiUkm249pKG1-125">
          <mxGeometry relative="1" as="geometry" />
        </mxCell>
        <mxCell id="k5cldJpxPiUkm249pKG1-129" style="edgeStyle=orthogonalEdgeStyle;rounded=0;orthogonalLoop=1;jettySize=auto;html=1;entryX=0;entryY=0.5;entryDx=0;entryDy=0;" edge="1" parent="1" source="k5cldJpxPiUkm249pKG1-111" target="k5cldJpxPiUkm249pKG1-126">
          <mxGeometry relative="1" as="geometry" />
        </mxCell>
        <mxCell id="k5cldJpxPiUkm249pKG1-111" value="示例文件管理" style="ellipse;whiteSpace=wrap;html=1;" vertex="1" parent="1">
          <mxGeometry x="335" y="2360" width="90" height="40" as="geometry" />
        </mxCell>
        <mxCell id="k5cldJpxPiUkm249pKG1-135" style="edgeStyle=orthogonalEdgeStyle;rounded=0;orthogonalLoop=1;jettySize=auto;html=1;entryX=0;entryY=0.5;entryDx=0;entryDy=0;" edge="1" parent="1" source="k5cldJpxPiUkm249pKG1-121" target="k5cldJpxPiUkm249pKG1-133">
          <mxGeometry relative="1" as="geometry">
            <Array as="points">
              <mxPoint x="640" y="2150" />
              <mxPoint x="640" y="2200" />
            </Array>
          </mxGeometry>
        </mxCell>
        <mxCell id="k5cldJpxPiUkm249pKG1-121" value="功能添加" style="ellipse;whiteSpace=wrap;html=1;" vertex="1" parent="1">
          <mxGeometry x="490" y="2130" width="90" height="40" as="geometry" />
        </mxCell>
        <mxCell id="k5cldJpxPiUkm249pKG1-136" style="edgeStyle=orthogonalEdgeStyle;rounded=0;orthogonalLoop=1;jettySize=auto;html=1;entryX=0;entryY=0.5;entryDx=0;entryDy=0;" edge="1" parent="1" source="k5cldJpxPiUkm249pKG1-122" target="k5cldJpxPiUkm249pKG1-133">
          <mxGeometry relative="1" as="geometry" />
        </mxCell>
        <mxCell id="k5cldJpxPiUkm249pKG1-143" style="edgeStyle=orthogonalEdgeStyle;rounded=0;orthogonalLoop=1;jettySize=auto;html=1;entryX=0.5;entryY=1;entryDx=0;entryDy=0;" edge="1" parent="1" source="k5cldJpxPiUkm249pKG1-122" target="k5cldJpxPiUkm249pKG1-106">
          <mxGeometry relative="1" as="geometry">
            <Array as="points">
              <mxPoint x="660" y="2200" />
              <mxPoint x="660" y="2460" />
              <mxPoint x="115" y="2460" />
            </Array>
          </mxGeometry>
        </mxCell>
        <mxCell id="k5cldJpxPiUkm249pKG1-122" value="功能修改" style="ellipse;whiteSpace=wrap;html=1;" vertex="1" parent="1">
          <mxGeometry x="490" y="2180" width="90" height="40" as="geometry" />
        </mxCell>
        <mxCell id="k5cldJpxPiUkm249pKG1-137" style="edgeStyle=orthogonalEdgeStyle;rounded=0;orthogonalLoop=1;jettySize=auto;html=1;entryX=0;entryY=0.5;entryDx=0;entryDy=0;" edge="1" parent="1" source="k5cldJpxPiUkm249pKG1-123" target="k5cldJpxPiUkm249pKG1-133">
          <mxGeometry relative="1" as="geometry">
            <Array as="points">
              <mxPoint x="640" y="2250" />
              <mxPoint x="640" y="2200" />
            </Array>
          </mxGeometry>
        </mxCell>
        <mxCell id="k5cldJpxPiUkm249pKG1-123" value="功能删除" style="ellipse;whiteSpace=wrap;html=1;" vertex="1" parent="1">
          <mxGeometry x="490" y="2230" width="90" height="40" as="geometry" />
        </mxCell>
        <mxCell id="k5cldJpxPiUkm249pKG1-138" style="edgeStyle=orthogonalEdgeStyle;rounded=0;orthogonalLoop=1;jettySize=auto;html=1;entryX=0;entryY=0.5;entryDx=0;entryDy=0;" edge="1" parent="1" source="k5cldJpxPiUkm249pKG1-124" target="k5cldJpxPiUkm249pKG1-133">
          <mxGeometry relative="1" as="geometry">
            <Array as="points">
              <mxPoint x="640" y="2330" />
              <mxPoint x="640" y="2200" />
            </Array>
          </mxGeometry>
        </mxCell>
        <mxCell id="k5cldJpxPiUkm249pKG1-124" value="示例文件添加" style="ellipse;whiteSpace=wrap;html=1;" vertex="1" parent="1">
          <mxGeometry x="490" y="2310" width="90" height="40" as="geometry" />
        </mxCell>
        <mxCell id="k5cldJpxPiUkm249pKG1-139" style="edgeStyle=orthogonalEdgeStyle;rounded=0;orthogonalLoop=1;jettySize=auto;html=1;entryX=0;entryY=0.5;entryDx=0;entryDy=0;" edge="1" parent="1" source="k5cldJpxPiUkm249pKG1-125" target="k5cldJpxPiUkm249pKG1-133">
          <mxGeometry relative="1" as="geometry">
            <Array as="points">
              <mxPoint x="640" y="2380" />
              <mxPoint x="640" y="2200" />
            </Array>
          </mxGeometry>
        </mxCell>
        <mxCell id="k5cldJpxPiUkm249pKG1-125" value="示例文件修改" style="ellipse;whiteSpace=wrap;html=1;" vertex="1" parent="1">
          <mxGeometry x="490" y="2360" width="90" height="40" as="geometry" />
        </mxCell>
        <mxCell id="k5cldJpxPiUkm249pKG1-141" style="edgeStyle=orthogonalEdgeStyle;rounded=0;orthogonalLoop=1;jettySize=auto;html=1;entryX=0;entryY=0.5;entryDx=0;entryDy=0;" edge="1" parent="1" source="k5cldJpxPiUkm249pKG1-126" target="k5cldJpxPiUkm249pKG1-133">
          <mxGeometry relative="1" as="geometry">
            <Array as="points">
              <mxPoint x="640" y="2430" />
              <mxPoint x="640" y="2200" />
            </Array>
          </mxGeometry>
        </mxCell>
        <mxCell id="k5cldJpxPiUkm249pKG1-126" value="示例文件删除" style="ellipse;whiteSpace=wrap;html=1;" vertex="1" parent="1">
          <mxGeometry x="490" y="2410" width="90" height="40" as="geometry" />
        </mxCell>
        <mxCell id="k5cldJpxPiUkm249pKG1-133" value="" style="ellipse;html=1;shape=endState;fillColor=#000000;strokeColor=#ff0000;" vertex="1" parent="1">
          <mxGeometry x="690" y="2185" width="30" height="30" as="geometry" />
        </mxCell>
      </root>
    </mxGraphModel>
  </diagram>
</mxfile>
